<?xml version="1.0" encoding="utf-8"?>
<svg width="462" height="588" viewBox="0 0 462 588" fill="none" xmlns="http://www.w3.org/2000/svg">
  <rect width="26.4618" height="4.7339" transform="matrix(0.757375 0.65298 0.65298 -0.757375 161.185 47.5859)" fill="#6070FF"/>
  <ellipse cx="166.304" cy="59.2115" rx="5.5" ry="5" transform="rotate(52.9708 166.304 59.2115)" fill="#CBCDFF"/>
  <rect x="225.824" y="549" width="68.0631" height="12.1762" transform="rotate(23.34 225.824 549)" fill="#EBEBFF"/>
  <circle cx="281" cy="563.096" r="10" fill="#6070FF"/>
  <path d="M368.907 465.5C370.426 463.69 371.498 461.548 372.036 459.247C372.573 456.945 372.562 454.55 372.001 452.254C371.441 449.958 370.348 447.827 368.81 446.032C367.273 444.237 365.335 442.83 363.152 441.924C360.97 441.017 358.604 440.638 356.248 440.816C353.891 440.994 351.61 441.724 349.588 442.948C347.566 444.171 345.861 445.854 344.611 447.859C343.36 449.864 342.6 452.136 342.39 454.49L348.841 455.063C348.96 453.722 349.393 452.428 350.106 451.286C350.818 450.144 351.79 449.185 352.941 448.488C354.093 447.791 355.393 447.375 356.735 447.273C358.078 447.172 359.425 447.388 360.669 447.905C361.912 448.421 363.016 449.223 363.892 450.245C364.768 451.268 365.391 452.482 365.71 453.79C366.029 455.098 366.036 456.462 365.73 457.773C365.423 459.084 364.813 460.305 363.947 461.336L368.907 465.5Z" fill="#EBEBFF"/>
  <path d="M352.497 429C352.278 432.194 353.337 435.344 355.441 437.757C357.545 440.171 360.521 441.649 363.715 441.868C366.909 442.087 370.059 441.028 372.472 438.924C374.885 436.82 376.364 433.844 376.583 430.65L352.497 429Z" fill="#6070FF"/>
  <rect y="37.487" width="51.99" height="9.301" transform="matrix(0.69288, -0.721053, 0.721053, 0.69288, -42.077976, 18.709797)" fill="#EBEBFF"/>
  <path d="M -9.213 65.205 C -11.218 69.901 -11.275 75.201 -9.373 79.939 C -7.47 84.677 -3.763 88.465 0.933 90.47 C 5.629 92.475 10.929 92.533 15.667 90.63 C 20.405 88.727 24.193 85.02 26.198 80.324 L -9.213 65.205 Z" fill="#6070FF"/>
  <circle cx="255.5" cy="13.5006" r="7" fill="white" stroke="#CBCDFF"/>
  <circle cx="337.5" cy="216.501" r="5" fill="white" stroke="#CBCDFF"/>
  <circle cx="94.5" cy="548.5" r="7" fill="white" stroke="#CBCDFF"/>
  <path d="M 489.261 103.103 C 485.215 95.921 479.534 89.792 472.679 85.214 C 465.823 80.635 457.986 77.735 449.802 76.749 C 441.617 75.762 433.315 76.717 425.568 79.536 C 417.822 82.355 410.847 86.958 405.211 92.974 C 399.574 98.989 395.433 106.248 393.123 114.161 C 390.813 122.075 390.399 130.422 391.915 138.525 C 393.431 146.628 396.833 154.26 401.848 160.804 C 406.862 167.348 413.346 172.618 420.776 176.19 L 430.563 155.829 C 426.33 153.794 422.636 150.791 419.779 147.064 C 416.923 143.336 414.984 138.988 414.121 134.371 C 413.257 129.755 413.493 124.999 414.809 120.491 C 416.125 115.983 418.484 111.848 421.695 108.421 C 424.906 104.994 428.88 102.371 433.293 100.765 C 437.706 99.159 442.436 98.615 447.099 99.177 C 451.761 99.739 456.226 101.391 460.132 104 C 464.037 106.608 467.274 110.1 469.579 114.191 L 489.261 103.103 Z" fill="#6070FF"/>
  <rect x="328" y="61.791" width="95.58" height="22.021" transform="matrix(0.866025, -0.5, 0.5, 0.866025, 62.116516, 182.091995)" fill="#EBEBFF"/>
</svg>